<svg xmlns="http://www.w3.org/2000/svg" width="185" height="46" viewBox="0 0 185 46" fill="none"><path d="M14.4102 21.0165C14.0159 21.7765 12.9287 21.7765 12.5344 21.0165L8.93502 14.0791C8.57008 13.3757 9.08053 12.5358 9.87295 12.5358H17.0717C17.8641 12.5358 18.3745 13.3757 18.0096 14.0791L14.4102 21.0165Z" fill="#35C2FF"></path><path d="M12.6604 33.0815C13.0535 32.7512 13.627 32.7512 14.02 33.0815L22.673 40.3526C23.428 40.987 22.9794 42.2182 21.9932 42.2182H4.68719C3.70106 42.2182 3.25245 40.987 4.00742 40.3526L12.6604 33.0815Z" fill="#35C2FF"></path><path d="M12.2522 23.9686L13.3102 24.5795L12.2522 23.9686L3.40632 39.29C2.86404 40.2293 3.5419 41.4033 4.62643 41.4033H22.3181C23.4026 41.4033 24.0805 40.2293 23.5382 39.29L14.6924 23.9686L13.6341 24.5796L14.6924 23.9686C14.1501 23.0293 12.7944 23.0293 12.2522 23.9686ZM21.403 40.5228C21.4028 40.5224 21.4026 40.522 21.4024 40.5216L21.403 40.5228L22.0131 40.1706L21.403 40.5228Z" stroke="#153AC7" stroke-width="2.46552"></path><path d="M14.6926 22.0314L13.6345 21.4205L14.6926 22.0314L23.5384 6.70999C24.0807 5.77073 23.4028 4.59669 22.3183 4.59669H4.6266C3.54206 4.59669 2.86421 5.77075 3.40649 6.70999L12.2523 22.0314L13.3106 21.4204L12.2523 22.0314C12.7946 22.9707 14.1503 22.9707 14.6926 22.0314ZM5.54169 5.47722C5.54191 5.4776 5.54213 5.47798 5.54235 5.47836L5.54169 5.47723L4.93163 5.82944L5.54169 5.47722Z" stroke="#153AC7" stroke-width="2.46552"></path><path d="M180.845 20.6098H183.876V36.1074H180.845V20.6098ZM180.294 15.4784C180.294 14.342 181.155 13.4121 182.361 13.4121C183.601 13.4121 184.462 14.342 184.462 15.4784C184.462 16.6494 183.601 17.5792 182.361 17.5792C181.155 17.5792 180.294 16.6494 180.294 15.4784Z" fill="white"></path><path d="M171.162 15.7192H174.193V20.6096H177.947V23.2958H174.193V31.5956C174.193 32.5943 174.469 33.4209 175.984 33.4209H178.291V36.1071H175.157C172.333 36.1071 171.162 34.6951 171.162 32.0089V23.2958H169.199V20.6096H171.162V15.7192Z" fill="white"></path><path d="M163.756 20.6098H166.787V36.1074H163.756V20.6098ZM163.205 15.4784C163.205 14.342 164.066 13.4121 165.272 13.4121C166.512 13.4121 167.373 14.342 167.373 15.4784C167.373 16.6494 166.512 17.5792 165.272 17.5792C164.066 17.5792 163.205 16.6494 163.205 15.4784Z" fill="white"></path><path d="M157.313 12H160.344V36.1073H157.313V12Z" fill="white"></path><path d="M150.88 20.6095H153.911V36.107H150.88V34.1096C149.744 35.5905 148.091 36.4514 145.955 36.4514C141.823 36.4514 138.448 33.2486 138.448 28.3583C138.448 23.4335 141.823 20.2651 145.955 20.2651C148.091 20.2651 149.744 21.0917 150.88 22.607V20.6095ZM141.547 28.3583C141.547 31.4234 143.372 33.6963 146.334 33.6963C149.33 33.6963 151.121 31.4234 151.121 28.3583C151.121 25.2588 149.33 23.0203 146.334 23.0203C143.372 23.0203 141.547 25.2588 141.547 28.3583Z" fill="white"></path><path d="M135.61 36.1069H132.58V34.2128C131.478 35.5903 129.928 36.4513 127.931 36.4513C124.452 36.4513 121.422 33.8684 121.422 29.5291V20.6094H124.452V28.7025C124.452 32.0431 126.036 33.6962 128.482 33.6962C130.927 33.6962 132.58 32.0431 132.58 28.7025V20.6094H135.61V36.1069Z" fill="white"></path><path d="M111.876 15.7192H114.907V20.6096H118.661V23.2958H114.907V31.5956C114.907 32.5943 115.182 33.4209 116.698 33.4209H119.005V36.1071H115.871C113.047 36.1071 111.876 34.6951 111.876 32.0089V23.2958H109.913V20.6096H111.876V15.7192Z" fill="white"></path><path d="M108.17 31.1823C107.171 34.3851 104.692 36.4514 100.972 36.4514C96.1166 36.4514 93.2237 33.2486 93.2237 28.3583C93.2237 23.4335 96.1166 20.2651 100.869 20.2651C104.657 20.2651 107.309 22.4692 108.17 25.8787H104.864C104.279 24.2256 102.867 23.0203 100.869 23.0203C97.9763 23.0203 96.3232 25.2588 96.3232 28.3583C96.3232 31.4234 97.9763 33.6963 100.972 33.6963C102.935 33.6963 104.072 32.6287 104.864 31.1823H108.17Z" fill="white"></path><path d="M76.301 20.6095H79.3316V22.5037C80.4336 21.1261 81.9834 20.2651 83.9808 20.2651C87.4592 20.2651 90.4898 22.8481 90.4898 27.1874V36.107H87.4592V28.0139C87.4592 24.6733 85.875 23.0203 83.4298 23.0203C80.9847 23.0203 79.3316 24.6733 79.3316 28.0139V36.107H76.301V20.6095Z" fill="white"></path><path d="M72.9127 36.1069H69.8821V34.2128C68.78 35.5903 67.2303 36.4513 65.2328 36.4513C61.7545 36.4513 58.7239 33.8684 58.7239 29.5291V20.6094H61.7545V28.7025C61.7545 32.0431 63.3387 33.6962 65.7839 33.6962C68.229 33.6962 69.8821 32.0431 69.8821 28.7025V20.6094H72.9127V36.1069Z" fill="white"></path><path d="M38 36.1073V12H46.7131C52.4644 12 55.8049 15.4439 55.8049 20.0243C55.8049 24.5702 52.4644 28.083 46.7131 28.083H41.2717V36.1073H38ZM41.2717 25.1557H46.7131C50.2947 25.1557 52.4644 22.8138 52.4644 20.0243C52.4644 17.2003 50.2947 14.9273 46.7131 14.9273H41.2717V25.1557Z" fill="white"></path></svg>