<svg width="64" height="72" viewBox="0 0 64 72" fill="none" xmlns="http://www.w3.org/2000/svg">
<g style="mix-blend-mode:multiply">
<path d="M33.1462 33.5748C32.6643 34.5037 31.3355 34.5037 30.8535 33.5748L26.4542 25.0956C26.0082 24.2359 26.6321 23.2094 27.6006 23.2094H36.3992C37.3677 23.2094 37.9916 24.2359 37.5455 25.0956L33.1462 33.5748Z" fill="#35C2FF"/>
<path d="M31.0085 48.3213C31.4889 47.9176 32.1898 47.9176 32.6702 48.3213L43.2463 57.2084C44.169 57.9838 43.6207 59.4886 42.4154 59.4886H21.2633C20.058 59.4886 19.5097 57.9838 20.4325 57.2084L31.0085 48.3213Z" fill="#35C2FF"/>
<path fill-rule="evenodd" clip-rule="evenodd" d="M21.0022 56.663C20.9193 56.8065 21.0229 56.9858 21.1886 56.9858H42.812C42.9777 56.9858 43.0813 56.8065 42.9985 56.663L32.1867 37.9365C32.1039 37.793 31.8968 37.793 31.8139 37.9365L21.0022 56.663ZM34.7965 36.4298L45.6082 55.1562C46.8509 57.3087 45.2975 59.9993 42.812 59.9993H21.1886C18.7031 59.9993 17.1497 57.3087 18.3925 55.1562L29.2042 36.4298C30.4469 34.2773 33.5537 34.2773 34.7965 36.4298Z" fill="#153AC7"/>
<path fill-rule="evenodd" clip-rule="evenodd" d="M42.9978 15.3361C43.0807 15.1926 42.9771 15.0132 42.8114 15.0132H21.188C21.0223 15.0132 20.9187 15.1926 21.0015 15.3361L31.8133 34.0625C31.8961 34.206 32.1032 34.206 32.1861 34.0625L42.9978 15.3361ZM29.2035 35.5692L18.3918 16.8428C17.1491 14.6903 18.7025 11.9997 21.188 11.9997H42.8114C45.2969 11.9997 46.8503 14.6903 45.6075 16.8428L34.7958 35.5692C33.5531 37.7217 30.4463 37.7217 29.2035 35.5692Z" fill="#153AC7"/>
</g>
</svg>
